<!--
  myRC - Application Logo
  Copyright (c) 2026 myRC Team
  Licensed under MIT License
  
  A logo representing financial management with:
  - Dollar sign (finances)
  - Chart bars (insights)
  - Circular flow (procurement cycle)
-->
<svg xmlns="http://www.w3.org/2000/svg" viewBox="0 0 64 64" width="64" height="64">
  <!-- Background circle -->
  <circle cx="32" cy="32" r="30" fill="url(#bgGradient)" />
  
  <!-- Dollar sign -->
  <g transform="translate(20, 14)">
    <!-- Full dollar sign -->
    <text x="12" y="32" font-family="Arial, Helvetica, sans-serif" font-size="36" font-weight="bold" fill="#ffffff" text-anchor="middle">$</text>
  </g>
  
  <!-- Chart bars (insights) - bottom right -->
  <g transform="translate(38, 38)">
    <rect x="0" y="12" width="4" height="8" fill="#4ade80" rx="1"/>
    <rect x="6" y="6" width="4" height="14" fill="#60a5fa" rx="1"/>
    <rect x="12" y="2" width="4" height="18" fill="#f472b6" rx="1"/>
  </g>
  
  <!-- Procurement cycle arrows - top left -->
  <g transform="translate(6, 6)">
    <path d="M12 2 A10 10 0 0 1 20 12" stroke="#fbbf24" stroke-width="2" fill="none" stroke-linecap="round"/>
    <polygon points="20,10 22,14 18,14" fill="#fbbf24"/>
    <path d="M20 12 A10 10 0 0 1 12 20" stroke="#22d3ee" stroke-width="2" fill="none" stroke-linecap="round"/>
    <polygon points="14,20 10,18 10,22" fill="#22d3ee"/>
  </g>
  
  <!-- Definitions -->
  <defs>
    <linearGradient id="bgGradient" x1="0%" y1="0%" x2="100%" y2="100%">
      <stop offset="0%" style="stop-color:#6366f1"/>
      <stop offset="100%" style="stop-color:#8b5cf6"/>
    </linearGradient>
  </defs>
</svg>
